# Blender v3.3.0 OBJ File: ''
# www.blender.org
mtllib diamond.mtl
o pCone1
v 6.644610 5.753026 0.634420
v 6.081023 6.578418 2.641431
v 6.548562 5.439821 1.988614
v 4.945535 7.813694 4.128637
v 5.596066 6.595026 3.947467
v 3.410992 9.270807 4.869580
v 4.099250 8.104375 5.196563
v 1.711032 10.727917 4.751504
v 2.285992 9.738085 5.545742
v 0.104450 11.963194 3.792348
v 0.432347 11.247435 4.941842
v -1.164180 12.788593 2.138166
v -1.179492 12.402646 3.476812
v -1.901687 13.078423 0.040768
v -2.304129 13.027842 1.373683
v -1.995827 12.788593 -2.180518
v -2.770349 13.027842 -1.047366
v -1.432239 11.963202 -4.187529
v -2.507174 12.402647 -3.417746
v -0.296751 10.727924 -5.674735
v -1.554678 11.247442 -5.376599
v 1.237793 9.270811 -6.415678
v -0.057863 9.738093 -6.625695
v 2.937751 7.813703 -6.297602
v 1.755395 8.104383 -6.974874
v 4.544342 6.578419 -5.338447
v 3.609048 6.595027 -6.370975
v 5.812963 5.753027 -3.684264
v 5.220880 5.439822 -4.905944
v 6.550471 5.463196 -1.586863
v 6.345516 4.814626 -2.802815
v 6.811737 4.814626 -0.381766
v 7.754162 0.449023 0.147931
v 7.794281 1.243750 1.951392
v 7.341903 1.428381 3.861098
v 7.564020 0.526159 2.115097
v 6.843545 2.636139 5.337125
v 5.849828 3.237996 6.929613
v 6.583245 1.962540 5.607800
v 4.928025 4.719994 7.845943
v 3.505088 5.602370 8.886304
v 4.607206 4.112232 8.195892
v -3.228685 0.449535 1.728981
v 2.339336 7.178065 9.095892
v 0.664636 8.161561 9.433289
v 1.936724 6.647969 9.485332
v -0.528415 9.636137 8.896688
v -2.239073 10.525936 8.487290
v -1.021636 9.183707 9.279837
v -4.153137 1.381728 2.500438
v -3.238642 11.719992 7.278658
v -4.763997 12.335558 6.192338
v -3.817500 11.333405 7.610677
v -5.378738 13.112382 4.488126
v -6.525725 13.314918 2.897804
v -6.025211 12.769788 4.731980
v -5.297974 2.313923 2.127463
v -6.622888 13.601322 0.949928
v -7.256052 13.314918 -0.894737
v -7.308668 13.274175 1.081989
v -6.781684 13.112382 -2.797272
v -6.843793 12.335560 -4.607903
v -7.472486 12.769788 -2.783618
v -5.992564 2.700052 0.828543
v -5.830956 11.719999 -6.183013
v -5.351718 10.525945 -7.676418
v -6.491712 11.333407 -6.276321
v -3.915433 9.636146 -8.691821
v -3.006971 8.161564 -9.633110
v -4.515671 9.183716 -8.864404
v -5.830024 2.313923 -0.635435
v -1.326742 7.178072 -9.941772
v -0.166526 5.602379 -10.180094
v -1.845187 6.647976 -10.153843
v 1.541014 4.719995 -9.742567
v 2.737191 3.237998 -9.234097
v 1.113179 4.112234 -9.948349
v -4.905571 1.381730 -1.406893
v 4.251239 2.636141 -8.124538
v 5.262106 1.428382 -6.939143
v 3.909034 1.962542 -8.279188
v 6.391330 1.243758 -5.334004
v 7.023835 0.449023 -3.644609
v 6.116746 0.526160 -5.400491
v -3.760736 0.449535 -1.033917
v 7.635479 0.754817 -1.795804
v 7.400203 0.021773 -1.750497
v -3.066145 0.063407 0.265003
v -3.033557 0.163761 1.034086
v -5.704392 0.029190 0.773049
v -3.621830 0.877228 2.243892
v -4.741722 1.886229 2.459549
v -5.737209 2.599698 1.554729
v -6.025153 2.599698 0.059457
v -5.436880 1.886231 -1.150347
v -4.316987 0.877229 -1.366004
v -3.321500 0.163761 -0.461184
v -0.733130 10.953096 6.514960
v 0.850694 10.334259 6.408393
v 1.587749 9.063297 7.271073
v 3.858070 7.017783 6.833878
v 4.977348 6.616225 5.613725
v 5.732175 5.127985 5.269928
v 6.924765 3.681591 2.817327
v 7.145066 3.987181 1.155731
v 7.254272 2.898812 -0.150536
v 6.670536 2.898812 -3.181843
v 6.084033 3.987182 -4.354137
v 5.262424 3.681592 -5.815093
v 3.244295 5.127993 -7.649418
v 2.415777 6.616233 -7.688300
v 0.923417 7.017792 -8.405531
v -1.346897 9.063299 -7.968338
v -1.710878 10.334267 -6.893631
v -3.221009 10.953105 -6.404386
v -4.413600 12.399498 -3.951784
v -3.878595 12.963310 -2.435638
v -4.743107 13.182278 -0.983922
v -4.159370 13.182278 2.047385
v -2.817561 12.963310 3.074241
v -2.751251 12.399490 4.680643
vt 0.382152 0.831975
vt 0.419130 0.822744
vt 0.405544 0.847177
vt 0.449753 0.800524
vt 0.448105 0.829764
vt 0.469382 0.767841
vt 0.477033 0.794743
vt 0.475326 0.730482
vt 0.494826 0.752353
vt 0.466055 0.693587
vt 0.490500 0.707121
vt 0.443878 0.662856
vt 0.473095 0.664589
vt 0.411200 0.643459
vt 0.438046 0.635667
vt 0.373804 0.637273
vt 0.395680 0.617921
vt 0.336961 0.646796
vt 0.350447 0.622241
vt 0.306172 0.668746
vt 0.307956 0.639644
vt 0.286806 0.701633
vt 0.279016 0.674668
vt 0.280618 0.738824
vt 0.261267 0.717017
vt 0.290088 0.775866
vt 0.265555 0.762241
vt 0.312104 0.806435
vt 0.282946 0.804757
vt 0.344885 0.826035
vt 0.317949 0.833699
vt 0.360334 0.851478
vt 0.344393 0.973321
vt 0.389492 0.961064
vt 0.424677 0.980582
vt 0.385827 0.991411
vt 0.437983 0.968053
vt 0.475467 0.939915
vt 0.515343 0.945389
vt 0.483066 0.969588
vt 0.523020 0.927172
vt 0.546236 0.886610
vt 0.584909 0.875511
vt 0.565112 0.910649
vt 0.442445 0.280315
vt 0.722624 0.204748
vt 0.732693 0.234189
vt 0.724599 0.265627
vt 0.585472 0.857240
vt 0.592063 0.810840
vt 0.624109 0.786488
vt 0.618428 0.826427
vt 0.729788 0.295365
vt 0.717390 0.324256
vt 0.616672 0.768183
vt 0.604389 0.723098
vt 0.623852 0.687885
vt 0.634734 0.726719
vt 0.436450 0.305185
vt 0.719637 0.354287
vt 0.704459 0.380722
vt 0.611350 0.674577
vt 0.583188 0.637124
vt 0.588595 0.597241
vt 0.612843 0.629480
vt 0.701185 0.410036
vt 0.681680 0.433191
vt 0.570414 0.589568
vt 0.529846 0.566396
vt 0.518689 0.527740
vt 0.553853 0.547487
vt 0.422035 0.327472
vt 0.676403 0.462796
vt 0.655464 0.483770
vt 0.500466 0.527179
vt 0.454079 0.520626
vt 0.429693 0.488606
vt 0.469635 0.494247
vt 0.644591 0.511821
vt 0.619652 0.528848
vt 0.411442 0.496036
vt 0.366384 0.508338
vt 0.331161 0.488889
vt 0.369989 0.477992
vt 0.402167 0.345698
vt 0.610153 0.560170
vt 0.587886 0.578986
vt 0.317900 0.501373
vt 0.280472 0.529531
vt 0.240587 0.524121
vt 0.272826 0.499875
vt 0.188868 0.554717
vt 0.166711 0.534314
vt 0.159706 0.502335
vt 0.232948 0.542269
vt 0.209779 0.582819
vt 0.171114 0.593952
vt 0.190881 0.558801
vt 0.384307 0.325707
vt 0.137082 0.481703
vt 0.130535 0.451632
vt 0.170568 0.612153
vt 0.163996 0.658526
vt 0.131950 0.682883
vt 0.137627 0.642946
vt 0.111974 0.427949
vt 0.110760 0.397524
vt 0.139385 0.701124
vt 0.151656 0.746191
vt 0.132162 0.781390
vt 0.121310 0.742549
vt 0.372420 0.302006
vt 0.094608 0.371657
vt 0.096204 0.341705
vt 0.144658 0.794658
vt 0.172790 0.832118
vt 0.167325 0.871997
vt 0.143120 0.839726
vt 0.084848 0.313492
vt 0.091938 0.284090
vt 0.185505 0.879650
vt 0.226052 0.902864
vt 0.237135 0.941543
vt 0.202006 0.921733
vt 0.368651 0.276432
vt 0.084533 0.254041
vt 0.095405 0.225684
vt 0.255382 0.942091
vt 0.301775 0.948703
vt 0.326096 0.980775
vt 0.286163 0.975056
vt 0.093360 0.194575
vt 0.109494 0.168264
vt 0.374886 0.252173
vt 0.131640 0.112413
vt 0.139554 0.080913
vt 0.163612 0.060211
vt 0.112006 0.136503
vt 0.441261 0.268122
vt 0.409568 0.277985
vt 0.440616 0.292889
vt 0.430186 0.316782
vt 0.412905 0.337360
vt 0.392369 0.336346
vt 0.377462 0.314141
vt 0.369617 0.289187
vt 0.370743 0.263914
vt 0.381539 0.241902
vt 0.542452 0.692619
vt 0.523807 0.727169
vt 0.545970 0.759755
vt 0.524015 0.821240
vt 0.486395 0.832465
vt 0.479026 0.871182
vt 0.420037 0.899135
vt 0.385508 0.880478
vt 0.352907 0.902631
vt 0.291439 0.880680
vt 0.280224 0.843077
vt 0.241514 0.835682
vt 0.213582 0.776711
vt 0.232241 0.742198
vt 0.210092 0.709607
vt 0.232023 0.648164
vt 0.269620 0.636944
vt 0.276985 0.598238
vt 0.335935 0.570280
vt 0.370469 0.588920
vt 0.403040 0.566750
vt 0.464515 0.588664
vt 0.475767 0.626269
vt 0.514479 0.633629
vn 0.9415 0.3075 0.1379
vn 0.8564 0.4107 0.3128
vn 0.7228 0.5454 0.4243
vn 0.5609 0.6913 0.4555
vn 0.3954 0.8261 0.4016
vn 0.2515 0.9292 0.2708
vn 0.1511 0.9850 0.0830
vn 0.1095 0.9850 -0.1332
vn 0.1329 0.9292 -0.3448
vn 0.2180 0.8261 -0.5197
vn 0.3516 0.6913 -0.6312
vn 0.5135 0.5454 -0.6624
vn 0.6790 0.4107 -0.6085
vn 0.8229 0.3075 -0.4777
vn 0.9234 0.2517 -0.2899
vn 0.9650 0.2517 -0.0737
vn 0.9484 -0.2645 0.1751
vn 0.9484 -0.2644 0.1750
vn 0.8584 -0.1327 0.4956
vn 0.8584 -0.1326 0.4956
vn 0.8584 -0.1325 0.4955
vn 0.6770 0.0647 0.7331
vn 0.6769 0.0644 0.7333
vn 0.0084 -0.9239 0.3825
vn 0.0084 -0.9240 0.3824
vn 0.0084 -0.9240 0.3823
vn 0.4320 0.2975 0.8514
vn 0.4320 0.2974 0.8514
vn -0.0939 -0.7999 0.5928
vn -0.0939 -0.7999 0.5927
vn 0.1604 0.5301 0.8326
vn 0.1605 0.5302 0.8326
vn 0.1605 0.5302 0.8325
vn -0.2546 -0.6379 0.7269
vn -0.2546 -0.6378 0.7269
vn -0.0965 0.7272 0.6796
vn -0.0962 0.7275 0.6794
vn -0.4494 -0.4623 0.7644
vn -0.2988 0.8592 0.4152
vn -0.2987 0.8593 0.4152
vn -0.2986 0.8594 0.4151
vn -0.6485 -0.3002 0.6995
vn -0.6484 -0.3002 0.6996
vn -0.6485 -0.3002 0.6996
vn -0.4169 0.9054 0.0803
vn -0.4165 0.9056 0.0802
vn -0.4166 0.9056 0.0802
vn -0.8216 -0.1761 0.5421
vn -0.8216 -0.1761 0.5422
vn -0.4320 0.8591 -0.2745
vn -0.4316 0.8593 -0.2745
vn -0.4317 0.8592 -0.2746
vn -0.9424 -0.1090 0.3161
vn -0.9424 -0.1090 0.3163
vn -0.9424 -0.1090 0.3162
vn -0.3417 0.7274 -0.5951
vn -0.3416 0.7274 -0.5951
vn -0.9924 -0.1090 0.0563
vn -0.1605 0.5299 -0.8327
vn -0.1602 0.5302 -0.8326
vn -0.1601 0.5302 -0.8326
vn -0.9642 -0.1762 -0.1984
vn -0.9642 -0.1761 -0.1983
vn 0.0846 0.2972 -0.9511
vn 0.0849 0.2974 -0.9510
vn 0.0848 0.2974 -0.9510
vn -0.8618 -0.3003 -0.4088
vn -0.8619 -0.3002 -0.4087
vn 0.3561 0.0644 -0.9322
vn 0.3564 0.0647 -0.9321
vn -0.7013 -0.4622 -0.5428
vn -0.7011 -0.4623 -0.5429
vn 0.6128 -0.1329 -0.7790
vn 0.6130 -0.1326 -0.7789
vn 0.6129 -0.1326 -0.7789
vn -0.5064 -0.6378 -0.5804
vn 0.8155 -0.2645 -0.5147
vn 0.8156 -0.2644 -0.5147
vn 0.8156 -0.2642 -0.5147
vn -0.3072 -0.8000 -0.5154
vn -0.3073 -0.7999 -0.5155
vn 0.9333 -0.3108 -0.1797
vn 0.9334 -0.3107 -0.1798
vn -0.1342 -0.9240 -0.3582
vn -0.1341 -0.9240 -0.3581
vn -0.1342 -0.9240 -0.3581
vn 0.0367 -0.9911 0.1279
vn 0.0367 -0.9911 0.1278
vn 0.0367 -0.9911 0.1277
vn -0.0134 -0.9911 -0.1323
vn 0.0092 -0.9239 0.3825
vn -0.0932 -0.7997 0.5931
vn -0.2541 -0.6375 0.7274
vn -0.4490 -0.4619 0.7649
vn -0.6483 -0.2996 0.7000
vn -0.8215 -0.1755 0.5425
vn -0.9424 -0.1083 0.3164
vn -0.9925 -0.1083 0.0562
vn -0.9642 -0.1755 -0.1986
vn -0.8619 -0.2996 -0.4092
vn -0.7010 -0.4619 -0.5434
vn -0.5061 -0.6375 -0.5810
vn -0.3068 -0.7997 -0.5161
vn -0.1335 -0.9239 -0.3586
vn 0.0375 -0.9911 0.1277
vn -0.0127 -0.9911 -0.1325
vn -0.4568 -0.4719 0.7541
vn -0.2655 -0.6443 0.7172
vn -0.1075 -0.8036 0.5854
vn -0.0070 -0.9255 0.3787
vn 0.0208 -0.9915 0.1285
vn -0.0284 -0.9915 -0.1270
vn -0.1471 -0.9255 -0.3490
vn -0.3172 -0.8036 -0.5036
vn -0.5128 -0.6443 -0.5673
vn -0.7042 -0.4719 -0.5305
vn -0.8622 -0.3126 -0.3987
vn -0.9627 -0.1907 -0.1919
vn -0.9905 -0.1247 0.0582
vn -0.9413 -0.1247 0.3138
vn -0.8226 -0.1907 0.5357
vn -0.6525 -0.3126 0.6903
vn 0.3590 0.8171 0.4511
vn 0.3536 0.8311 0.4292
vn 0.5609 0.6624 0.4967
vn 0.5392 0.6704 0.5098
vn 0.7155 0.5115 0.4758
vn 0.7155 0.5116 0.4758
vn 0.7032 0.5341 0.4693
vn 0.8705 0.3654 0.3296
vn 0.8610 0.3648 0.3544
vn 0.9536 0.2525 0.1639
vn 0.9536 0.2525 0.1640
vn 0.9453 0.2747 0.1759
vn 0.9747 0.2048 -0.0892
vn 0.9792 0.1917 -0.0665
vn 0.9339 0.1917 -0.3019
vn 0.9381 0.2048 -0.2792
vn 0.8124 0.2747 -0.5143
vn 0.8245 0.2525 -0.5064
vn 0.8245 0.2525 -0.5063
vn 0.6678 0.3648 -0.6488
vn 0.6859 0.3654 -0.6293
vn 0.4786 0.5341 -0.6969
vn 0.4876 0.5115 -0.7075
vn 0.4876 0.5116 -0.7075
vn 0.3113 0.6704 -0.6736
vn 0.3113 0.6704 -0.6735
vn 0.3363 0.6624 -0.6694
vn 0.1689 0.8311 -0.5298
vn 0.1658 0.8171 -0.5521
vn 0.0732 0.9294 -0.3617
vn 0.0942 0.9218 -0.3760
vn 0.0648 0.9917 -0.1110
vn 0.0476 0.9902 -0.1312
vn 0.0929 0.9902 0.1042
vn 0.0929 0.9902 0.1041
vn 0.1014 0.9917 0.0790
vn 0.2271 0.9218 0.3142
vn 0.2023 0.9294 0.3086
vn 0.1330 0.9292 -0.3448
vn 0.1479 0.8817 -0.4481
vn 0.1003 0.9948 -0.0193
vn 0.3037 0.8817 0.3611
vn 0.6390 0.6087 0.4703
vn 0.5458 0.6670 0.5072
vn 0.9097 0.3357 0.2444
vn 0.9574 0.2224 -0.1843
vn 0.7320 0.6084 -0.3067
vn 0.9573 0.2225 -0.1843
vn 0.9573 0.2226 -0.1843
vn 0.9573 0.2226 -0.1844
vn 0.7539 0.3357 -0.5648
vn 0.4186 0.6087 -0.6740
vn 0.6507 0.7490 -0.1253
g pCone1_pCone1_DiamondOutside
usemtl DiamondOutside
s 1
f 1/1/1 2/2/1 3/3/1
f 2/2/2 4/4/2 5/5/2
f 4/4/3 6/6/3 7/7/3
f 6/6/4 8/8/4 9/9/4
f 8/8/5 10/10/5 11/11/5
f 10/10/6 12/12/6 13/13/6
f 12/12/7 14/14/7 15/15/7
f 14/14/8 16/16/8 17/17/8
f 16/16/9 18/18/9 19/19/9
f 18/18/10 20/20/10 21/21/10
f 20/20/11 22/22/11 23/23/11
f 22/22/12 24/24/12 25/25/12
f 24/24/13 26/26/13 27/27/13
f 26/26/14 28/28/14 29/29/14
f 28/28/15 30/30/15 31/31/15
f 30/30/16 1/1/16 32/32/16
f 33/33/17 34/34/18 35/35/17
f 35/35/17 36/36/18 33/33/17
f 35/37/19 37/38/20 38/39/21
f 38/39/21 39/40/20 35/37/19
f 38/41/22 40/42/22 41/43/23
f 41/43/23 42/44/22 38/41/22
f 43/45/24 36/46/25 35/47/25
f 35/47/25 39/48/26 43/45/24
f 41/49/27 44/50/28 45/51/27
f 45/51/27 46/52/28 41/49/27
f 43/45/29 39/48/29 38/53/29
f 38/53/29 42/54/30 43/45/29
f 45/55/31 47/56/32 48/57/33
f 48/57/33 49/58/32 45/55/31
f 50/59/34 42/54/35 41/60/35
f 41/60/35 46/61/35 50/59/34
f 48/62/36 51/63/37 52/64/36
f 52/64/36 53/65/37 48/62/36
f 50/59/38 46/61/38 45/66/38
f 45/66/38 49/67/38 50/59/38
f 52/68/39 54/69/40 55/70/41
f 55/70/41 56/71/40 52/68/39
f 57/72/42 49/67/42 48/73/43
f 48/73/43 53/74/44 57/72/42
f 55/75/45 58/76/46 59/77/45
f 59/77/45 60/78/47 55/75/45
f 57/72/48 53/74/49 52/79/49
f 52/79/49 56/80/49 57/72/48
f 59/81/50 61/82/51 62/83/52
f 62/83/52 63/84/51 59/81/50
f 64/85/53 56/80/54 55/86/55
f 55/86/55 60/87/54 64/85/53
f 62/88/56 65/89/57 66/90/56
f 66/90/56 67/91/57 62/88/56
f 64/85/58 60/92/58 59/93/58
f 59/93/58 63/94/58 64/85/58
f 66/95/59 68/96/60 69/97/61
f 69/97/61 70/98/60 66/95/59
f 71/99/62 63/94/63 62/100/63
f 62/100/63 67/101/63 71/99/62
f 69/102/64 72/103/65 73/104/66
f 73/104/66 74/105/65 69/102/64
f 71/99/67 67/101/68 66/106/68
f 66/106/68 70/107/68 71/99/67
f 73/108/69 75/109/70 76/110/69
f 76/110/69 77/111/70 73/108/69
f 78/112/71 70/107/72 69/113/72
f 69/113/72 74/114/72 78/112/71
f 76/115/73 79/116/74 80/117/73
f 80/117/73 81/118/75 76/115/73
f 78/112/76 74/114/76 73/119/76
f 73/119/76 77/120/76 78/112/76
f 80/121/77 82/122/78 83/123/79
f 83/123/79 84/124/78 80/121/77
f 85/125/80 77/120/81 76/126/81
f 76/126/81 81/127/81 85/125/80
f 83/128/82 86/129/83 33/130/82
f 33/130/82 87/131/83 83/128/82
f 85/125/84 81/127/85 80/132/84
f 80/132/84 84/133/86 85/125/84
f 88/134/87 87/135/88 33/136/89
f 33/136/89 36/137/88 88/134/87
f 88/134/90 84/133/90 83/138/90
f 83/138/90 87/135/90 88/134/90
f 89/139/91 43/45/91 90/140/91
f 43/45/92 91/141/92 90/140/92
f 91/141/93 50/59/93 90/140/93
f 50/59/94 92/142/94 90/140/94
f 92/142/95 57/72/95 90/140/95
f 57/72/96 93/143/96 90/140/96
f 93/143/97 64/85/97 90/140/97
f 64/85/98 94/144/98 90/140/98
f 94/144/99 71/99/99 90/140/99
f 71/99/100 95/145/100 90/140/100
f 95/145/101 78/112/101 90/140/101
f 78/112/102 96/146/102 90/140/102
f 96/146/103 85/125/103 90/140/103
f 85/125/104 97/147/104 90/140/104
f 88/134/105 89/148/105 90/140/105
f 97/147/106 88/134/106 90/140/106
f 50/59/107 49/67/107 92/142/107
f 42/54/108 50/59/108 91/141/108
f 43/45/109 42/54/109 91/141/109
f 36/46/110 43/45/110 89/139/110
f 88/134/111 36/137/111 89/148/111
f 84/133/112 88/134/112 97/147/112
f 85/125/113 84/133/113 97/147/113
f 77/120/114 85/125/114 96/146/114
f 78/112/115 77/120/115 96/146/115
f 70/107/116 78/112/116 95/145/116
f 71/99/117 70/107/117 95/145/117
f 63/94/118 71/99/118 94/144/118
f 64/85/119 63/94/119 94/144/119
f 56/80/120 64/85/120 93/143/120
f 57/72/121 56/80/121 93/143/121
f 49/67/122 57/72/122 92/142/122
f 48/62/123 47/56/123 98/149/123
f 98/149/123 51/63/123 48/62/123
f 99/150/124 98/149/124 47/56/124
f 100/151/125 99/150/125 47/56/125
f 45/55/126 44/50/126 100/151/126
f 100/151/126 47/56/126 45/55/126
f 41/49/127 40/42/128 101/152/127
f 101/152/127 44/50/127 41/49/127
f 102/153/129 101/152/129 40/42/129
f 103/154/130 102/153/130 40/42/130
f 38/41/131 37/38/131 103/154/131
f 103/154/131 40/42/131 38/41/131
f 35/37/132 34/34/133 104/155/132
f 104/155/132 37/38/132 35/37/132
f 105/156/134 104/155/134 34/34/134
f 106/157/135 105/156/135 34/34/135
f 33/33/136 86/129/136 106/157/136
f 106/157/136 34/34/136 33/33/136
f 83/128/137 82/122/137 107/158/137
f 107/158/137 86/129/137 83/128/137
f 108/159/138 107/158/138 82/122/138
f 109/160/139 108/159/139 82/122/139
f 80/121/140 79/116/141 109/160/140
f 109/160/140 82/122/140 80/121/140
f 76/115/142 75/109/142 110/161/142
f 110/161/142 79/116/142 76/115/142
f 111/162/143 110/161/143 75/109/143
f 112/163/144 111/162/144 75/109/144
f 73/108/145 72/103/145 112/163/145
f 112/163/145 75/109/146 73/108/145
f 69/102/147 68/96/147 113/164/147
f 113/164/147 72/103/148 69/102/147
f 114/165/149 113/164/149 68/96/149
f 115/166/150 114/165/150 68/96/150
f 66/95/151 65/89/151 115/166/151
f 115/166/151 68/96/151 66/95/151
f 62/88/152 61/82/152 116/167/152
f 116/167/152 65/89/152 62/88/152
f 117/168/153 116/167/153 61/82/153
f 118/169/154 117/168/154 61/82/154
f 59/81/155 58/76/155 118/169/155
f 118/169/155 61/82/155 59/81/155
f 55/75/156 54/69/157 119/170/156
f 119/170/156 58/76/156 55/75/156
f 120/171/158 119/170/158 54/69/158
f 121/172/159 120/171/159 54/69/159
f 52/68/160 51/63/160 121/172/160
f 121/172/160 54/69/160 52/68/160
f 12/12/7 15/15/7 120/171/7
f 120/171/6 13/13/6 12/12/6
f 8/8/5 11/11/5 99/150/5
f 99/150/4 9/9/4 8/8/4
f 4/4/3 7/7/3 102/153/3
f 102/153/2 5/5/2 4/4/2
f 1/1/1 3/3/1 105/156/1
f 105/156/16 32/32/16 1/1/16
f 28/28/15 31/31/15 108/159/15
f 108/159/14 29/29/14 28/28/14
f 24/24/13 27/27/13 111/162/13
f 111/162/12 25/25/12 24/24/12
f 20/20/11 23/23/11 114/165/11
f 114/165/10 21/21/10 20/20/10
f 16/16/9 19/19/9 117/168/161
f 117/168/8 17/17/8 16/16/8
f 19/19/162 18/18/162 21/21/162
f 19/19/162 21/21/162 114/165/162
f 19/19/162 114/165/162 115/166/162
f 19/19/162 115/166/162 65/89/162
f 19/19/162 65/89/162 116/167/162
f 19/19/162 116/167/162 117/168/162
f 15/15/163 14/14/163 17/17/163
f 15/15/163 17/17/163 117/168/163
f 15/15/163 117/168/163 118/169/163
f 15/15/163 118/169/163 58/76/163
f 15/15/163 58/76/163 119/170/163
f 15/15/163 119/170/163 120/171/163
f 11/11/164 10/10/164 13/13/164
f 11/11/164 13/13/164 120/171/164
f 11/11/164 120/171/164 121/172/164
f 11/11/164 121/172/164 51/63/164
f 11/11/164 51/63/164 98/149/164
f 11/11/164 98/149/164 99/150/164
f 102/153/165 7/7/166 6/6/165
f 102/153/165 6/6/165 9/9/165
f 102/153/165 9/9/165 99/150/165
f 102/153/165 99/150/165 100/151/165
f 100/151/165 44/50/165 101/152/165
f 100/151/165 101/152/165 102/153/165
f 3/3/167 2/2/167 5/5/167
f 3/3/167 5/5/167 102/153/167
f 3/3/167 102/153/167 103/154/167
f 3/3/167 103/154/167 37/38/167
f 3/3/167 37/38/167 104/155/167
f 3/3/167 104/155/167 105/156/167
f 108/159/168 31/31/169 30/30/170
f 108/159/168 30/30/170 32/32/171
f 108/159/168 32/32/171 105/156/172
f 108/159/168 105/156/172 106/157/171
f 106/157/171 86/129/172 107/158/172
f 106/157/171 107/158/172 108/159/168
f 27/27/173 26/26/173 29/29/173
f 27/27/173 29/29/173 108/159/173
f 27/27/173 108/159/173 109/160/173
f 27/27/173 109/160/173 79/116/173
f 27/27/173 79/116/173 110/161/173
f 27/27/173 110/161/173 111/162/173
f 23/23/174 22/22/174 25/25/174
f 23/23/174 25/25/174 111/162/174
f 23/23/174 111/162/174 112/163/174
f 23/23/174 112/163/174 72/103/174
f 23/23/174 72/103/174 113/164/174
f 23/23/174 113/164/174 114/165/174
f 4/4/175 2/2/175 1/1/175
f 4/4/175 1/1/175 30/30/175
f 4/4/175 30/30/175 28/28/175
f 4/4/175 28/28/175 26/26/175
f 4/4/175 26/26/175 24/24/175
f 4/4/175 24/24/175 22/22/175
f 4/4/175 22/22/175 20/20/175
f 4/4/175 20/20/175 18/18/175
f 4/4/175 18/18/175 16/16/175
f 4/4/175 16/16/175 14/14/175
f 4/4/175 14/14/175 12/12/175
f 4/4/175 12/12/175 10/10/175
f 4/4/175 10/10/175 8/8/175
f 8/8/175 6/6/175 4/4/175
